<svg version="1.0" xmlns="http://www.w3.org/2000/svg" width="1024.000000pt" height="1024.000000pt" viewBox="0 0 1024.000000 1024.000000" preserveAspectRatio="xMidYMid meet">

<g transform="translate(0.000000,1024.000000) scale(0.100000,-0.100000)" fill="#000000" stroke="none">
<path d="M4425 8827 c-86 -86 -29 -220 88 -204 107 15 140 140 55 212 -45 38
-100 35 -143 -8z" data-index="0"></path>
<path d="M5032 8849 c-164 -28 -275 -164 -276 -339 -1 -65 3 -84 31 -141 39
-78 105 -148 170 -180 72 -34 208 -38 288 -9 71 27 148 99 185 175 36 72 41
203 10 271 -32 73 -68 121 -120 159 -82 60 -183 83 -288 64z m229 -112 c48
-32 58 -66 30 -106 -12 -17 -27 -31 -32 -31 -5 0 -26 17 -47 38 -20 20 -50 46
-66 57 -26 18 -28 23 -17 43 16 31 85 31 132 -1z" data-index="1"></path>
<path d="M5673 8845 c-42 -18 -68 -70 -59 -118 16 -85 116 -118 177 -58 23 24
29 38 29 74 0 37 -6 51 -31 76 -17 17 -37 31 -44 31 -7 0 -19 2 -27 5 -7 2
-28 -2 -45 -10z" data-index="2"></path>
<path d="M6067 8656 c-74 -27 -107 -76 -107 -157 0 -38 7 -64 26 -96 l25 -44
-26 -92 c-44 -154 -128 -414 -249 -775 -64 -189 -116 -356 -116 -372 0 -22 6
-30 31 -39 18 -6 38 -11 45 -11 8 0 46 99 100 263 48 144 125 375 171 512 46
138 99 301 119 363 33 105 37 112 61 112 72 0 153 90 153 171 -1 117 -125 205
-233 165z m159 -44 c12 -8 26 -52 16 -52 -9 0 -52 43 -52 52 0 10 21 10 36 0z" data-index="3" style="opacity: 1;"></path>
<path d="M3893 8645 c-40 -17 -73 -69 -73 -113 0 -25 9 -43 33 -66 17 -18 37
-35 43 -37 7 -2 86 -189 177 -414 188 -468 193 -478 272 -599 32 -49 81 -145
109 -215 55 -134 62 -142 122 -127 34 9 31 43 -12 167 -47 137 -68 174 -124
231 -27 27 -54 67 -65 95 -9 26 -50 127 -90 223 -102 243 -235 577 -251 628
-11 36 -11 48 2 85 20 56 11 99 -27 131 -34 29 -68 32 -116 11z" data-index="4" style="opacity: 1;"></path>
<path d="M4218 8644 c-45 -24 -45 -53 0 -193 51 -158 128 -440 186 -681 24
-102 52 -205 62 -228 l17 -43 24 23 c25 22 25 25 19 128 -7 123 -19 181 -115
552 -46 182 -71 297 -71 333 0 31 -7 71 -14 90 -13 30 -20 35 -48 35 -18 -1
-45 -7 -60 -16z" data-index="5"></path>
<path d="M6560 8477 c-76 -38 -70 -164 10 -197 71 -29 150 24 150 101 0 53
-14 78 -55 95 -42 17 -72 18 -105 1z" data-index="6"></path>
<path d="M3195 8405 c-22 -8 -53 -29 -68 -47 -100 -118 -23 -277 134 -278 l46
0 102 -157 c57 -87 138 -210 182 -273 44 -63 156 -227 248 -365 227 -338 262
-389 274 -397 18 -11 77 24 77 46 0 11 -15 42 -34 70 -19 28 -63 98 -99 156
-36 58 -149 229 -253 380 -441 648 -416 607 -399 640 19 37 19 100 1 145 -29
69 -133 109 -211 80z m135 -30 c7 -9 11 -17 9 -19 -7 -7 -49 13 -49 24 0 15
26 12 40 -5z" data-index="7"></path>
<path d="M6942 8380 c-18 -11 -40 -36 -49 -55 -17 -36 -16 -49 13 -136 6 -18
-35 -69 -221 -279 -159 -179 -309 -361 -448 -545 -188 -250 -237 -331 -237
-397 0 -21 38 -24 62 -5 33 26 182 205 238 287 82 119 253 324 440 527 87 94
186 205 220 246 39 48 75 81 101 92 87 40 117 113 78 192 -43 86 -126 116
-197 73z" data-index="8" style="opacity: 1;"></path>
<path d="M3623 8346 c-24 -21 -28 -31 -28 -79 0 -64 19 -91 75 -108 30 -9 44
-8 73 6 106 50 70 205 -49 205 -31 0 -51 -7 -71 -24z" data-index="9"></path>
<path d="M4614 8156 c-3 -14 1 -71 10 -128 9 -57 27 -186 40 -288 42 -312 86
-583 98 -597 6 -7 25 -13 42 -13 61 0 61 0 32 201 -14 101 -31 231 -36 289
-21 206 -51 446 -60 482 -19 67 -112 107 -126 54z" data-index="10" style="opacity: 1;"></path>
<path d="M5467 8118 c-52 -55 -58 -65 -53 -92 8 -39 34 -75 76 -103 55 -38
116 -26 169 31 18 19 26 41 29 79 4 47 1 57 -24 86 -30 36 -78 61 -116 61 -15
0 -43 -22 -81 -62z" data-index="11"></path>
<path d="M6280 8139 c-89 -36 -126 -147 -81 -246 l20 -42 -48 -93 c-212 -412
-311 -612 -311 -629 0 -14 7 -19 29 -19 55 0 109 78 266 385 152 295 165 315
211 315 55 0 103 28 135 79 45 70 37 136 -24 199 -19 19 -52 39 -81 47 -57 17
-81 18 -116 4z m138 -35 c24 -16 29 -34 10 -34 -14 0 -48 30 -48 42 0 12 13
10 38 -8z" data-index="12"></path>
<path d="M7295 8086 c-37 -16 -54 -36 -69 -79 -7 -21 -61 -80 -150 -166 -76
-74 -191 -191 -255 -260 -64 -69 -174 -187 -246 -261 -291 -303 -426 -455
-419 -473 6 -16 57 -47 76 -47 7 0 97 83 198 185 102 102 220 216 263 253 51
44 97 95 131 148 59 89 180 223 296 324 41 37 94 88 117 113 l43 46 45 -20
c124 -55 226 72 150 187 -37 57 -115 79 -180 50z" data-index="13"></path>
<path d="M2785 8066 c-64 -29 -91 -94 -72 -173 15 -61 59 -93 127 -93 45 0 49
-3 127 -80 l80 -81 -14 -42 c-27 -79 8 -175 85 -227 30 -21 48 -25 107 -25
l71 0 85 -90 c47 -49 147 -160 224 -245 76 -85 170 -187 208 -227 l70 -72 39
31 c21 17 38 37 38 43 0 18 -126 160 -340 384 -259 271 -242 248 -223 302 8
24 13 62 10 85 -6 53 -52 121 -98 145 -44 22 -134 26 -175 7 -25 -12 -29 -10
-53 21 -14 18 -45 57 -68 86 -40 51 -42 56 -37 107 6 58 -14 103 -58 132 -34
22 -98 28 -133 12z m527 -393 c19 -17 24 -58 9 -67 -22 -14 -71 36 -71 74 0
16 41 12 62 -7z" data-index="14"></path>
<path d="M3761 8041 c-11 -11 -25 -38 -31 -59 -20 -76 20 -122 105 -122 73 1
105 33 105 105 0 57 -44 95 -109 95 -37 0 -56 -5 -70 -19z" data-index="15"></path>
<path d="M7824 7890 c-93 -94 -170 -176 -172 -184 -2 -7 19 -28 47 -45 l50
-32 77 63 c42 35 119 110 170 167 101 113 113 142 74 181 -44 44 -64 32 -246
-150z" data-index="16"></path>
<path d="M2193 8030 c-41 -24 -51 -61 -28 -96 9 -15 100 -113 200 -218 205
-214 1196 -1204 1236 -1235 l26 -20 53 50 54 50 -255 246 c-312 303 -999 990
-1134 1136 -55 59 -104 107 -110 107 -5 0 -25 -9 -42 -20z" data-index="17"></path>
<path d="M5052 7598 l3 -453 60 0 60 0 5 70 c3 39 4 242 1 453 l-3 382 -64 0
-64 0 2 -452z" data-index="18" style="opacity: 1;"></path>
<path d="M5497 7856 c-16 -17 -37 -121 -93 -465 -38 -228 -38 -233 -19 -247
30 -22 74 -18 85 9 12 26 44 190 60 302 6 44 20 132 31 195 10 63 19 139 19
168 l0 52 -34 0 c-19 0 -41 -7 -49 -14z" data-index="19" style="opacity: 1;"></path>
<path d="M3942 7770 c-27 -11 -42 -46 -35 -82 3 -14 25 -50 50 -79 29 -36 90
-146 178 -324 73 -149 140 -277 149 -284 18 -15 78 -8 95 13 17 20 1 58 -93
230 -48 87 -127 237 -177 334 -49 98 -97 183 -106 190 -19 14 -29 14 -61 2z" data-index="20" style="opacity: 1;"></path>
<path d="M7263 7586 c-102 -25 -212 -118 -260 -221 -25 -53 -28 -71 -28 -160
0 -93 2 -105 32 -166 60 -121 133 -185 248 -215 71 -19 132 -17 211 7 132 40
210 107 267 227 29 60 32 77 32 157 0 84 -3 95 -35 154 -97 180 -276 263 -467
217z m259 -98 c45 -13 108 -78 108 -111 0 -33 -28 -67 -54 -67 -27 0 -160 91
-170 116 -9 25 1 50 27 62 29 14 42 14 89 0z" data-index="21" style="opacity: 1;"></path>
<path d="M7994 7560 c-11 -4 -33 -22 -47 -40 -35 -41 -36 -94 -3 -135 22 -27
30 -30 81 -30 51 0 59 3 86 33 22 25 29 42 29 75 0 48 -22 77 -73 96 -33 13
-44 13 -73 1z" data-index="22"></path>
<path d="M2150 7553 c-48 -18 -61 -58 -39 -122 13 -38 35 -51 86 -51 35 -1 50
-12 208 -161 94 -89 265 -248 380 -354 116 -106 265 -247 332 -313 184 -180
310 -282 348 -282 7 0 20 18 30 40 l18 41 -39 40 c-21 23 -83 79 -137 126 -54
46 -254 236 -445 421 -400 388 -628 597 -666 612 -29 11 -52 12 -76 3z" data-index="23" style="opacity: 1;"></path>
<path d="M2058 7286 c-12 -6 -24 -19 -26 -27 -4 -20 115 -136 231 -227 47 -37
162 -130 255 -207 93 -77 244 -198 335 -268 195 -150 231 -188 192 -203 -30
-12 -562 322 -890 560 -86 62 -89 66 -87 100 11 118 -121 169 -215 83 -17 -15
-23 -32 -23 -64 0 -86 48 -133 135 -133 41 0 52 -6 108 -53 35 -30 95 -75 133
-100 38 -26 125 -86 194 -134 180 -124 390 -250 500 -299 52 -23 175 -83 272
-132 l177 -91 20 35 c12 19 21 41 21 48 0 8 -34 37 -77 66 -102 71 -136 102
-190 174 -53 69 -223 241 -298 301 -115 92 -284 232 -342 283 -95 83 -365 290
-384 295 -10 3 -28 -1 -41 -7z" data-index="24" style="opacity: 1;"></path>
<path d="M8203 7183 c-51 -9 -79 -88 -52 -146 36 -79 172 -74 199 7 25 78 -57
155 -147 139z" data-index="25"></path>
<path d="M6744 7084 c-101 -68 -404 -355 -404 -382 0 -16 50 -52 72 -52 31 0
73 34 230 187 80 79 150 143 155 143 24 1 33 17 24 46 -5 16 -12 41 -15 57 -8
33 -13 34 -62 1z" data-index="26"></path>
<path d="M4935 6940 c-193 -18 -451 -92 -627 -181 -212 -107 -479 -331 -653
-549 -239 -300 -365 -672 -365 -1080 0 -208 23 -351 86 -540 101 -300 246
-526 479 -742 139 -129 348 -290 359 -277 18 21 134 234 131 240 -3 4 -49 36
-103 72 -276 184 -510 490 -605 793 -67 213 -88 506 -51 723 71 418 382 855
756 1065 159 89 404 172 577 197 105 15 344 6 424 -15 32 -9 64 -16 71 -16 13
0 251 229 244 235 -8 8 -183 48 -288 66 -119 19 -283 23 -435 9z" data-index="27" style="opacity: 1;"></path>
<path d="M7930 6869 c-30 -22 -129 -79 -220 -126 -259 -135 -331 -177 -550
-324 -226 -153 -323 -227 -328 -251 -2 -9 8 -28 21 -43 l23 -27 41 21 c71 36
305 192 363 242 72 62 179 128 434 269 281 155 356 224 291 266 -18 11 -27 8
-75 -27z" data-index="28"></path>
<path d="M6776 6792 c-55 -54 -134 -127 -174 -162 -101 -88 -101 -90 -46 -135
39 -32 49 -36 68 -27 43 19 316 293 316 316 -1 30 -37 106 -51 106 -6 0 -57
-44 -113 -98z" data-index="29"></path>
<path d="M8284 6814 c-22 -14 -53 -47 -70 -72 -24 -40 -29 -57 -28 -109 l1
-61 -66 -28 c-95 -39 -1121 -551 -1151 -573 l-24 -19 19 -37 c11 -20 24 -39
28 -42 8 -5 92 34 207 98 178 98 727 367 870 426 47 19 105 46 129 60 l43 25
37 -20 c56 -31 103 -36 161 -17 88 29 141 92 156 183 12 74 -45 150 -143 190
-70 30 -119 28 -169 -4z m177 -21 c28 -17 48 -57 36 -70 -7 -6 -69 31 -87 52
-12 15 -6 35 12 35 5 0 23 -8 39 -17z" data-index="30"></path>
<path d="M1694 6776 c-43 -19 -74 -66 -74 -113 0 -85 60 -143 147 -143 35 0
50 7 80 34 l38 33 30 -19 c45 -29 629 -315 710 -348 79 -32 247 -107 375 -167
114 -54 253 -113 267 -113 6 0 16 15 23 33 10 30 9 34 -25 64 -20 17 -66 43
-102 58 -64 25 -285 131 -618 296 -88 43 -164 79 -168 79 -4 0 -82 37 -175 81
-92 45 -199 96 -239 115 -44 20 -74 40 -78 53 -3 11 -20 32 -36 46 -35 29
-102 34 -155 11z" data-index="31" style="opacity: 1;"></path>
<path d="M5960 6727 c0 -8 -21 -66 -46 -131 -25 -64 -45 -118 -43 -120 2 -1
22 -13 44 -26 70 -43 228 -175 299 -250 216 -230 352 -486 418 -785 29 -134
32 -412 5 -554 -43 -228 -152 -460 -312 -661 -223 -280 -505 -455 -885 -551
-69 -17 -125 -22 -301 -26 -196 -5 -224 -3 -299 16 -46 12 -87 21 -91 21 -5 0
-23 -21 -41 -47 -18 -27 -61 -81 -96 -121 -35 -40 -62 -75 -60 -77 13 -12 337
-68 443 -77 314 -25 660 44 925 183 218 115 424 278 581 459 210 242 327 477
395 795 26 119 28 148 28 340 0 176 -3 230 -22 330 -48 252 -135 467 -280 685
-79 119 -247 300 -383 415 -80 67 -260 195 -274 195 -3 0 -5 -6 -5 -13z" data-index="32" style="opacity: 1;"></path>
<path d="M5735 6688 c-40 -21 -99 -86 -233 -253 -192 -239 -549 -655 -727
-845 -97 -104 -194 -214 -311 -355 -54 -66 -139 -165 -189 -220 -108 -120
-165 -189 -165 -200 0 -4 207 -6 460 -3 317 3 459 1 456 -7 -7 -17 -165 -354
-202 -432 -19 -40 -61 -142 -95 -225 -54 -135 -90 -211 -199 -414 -14 -27 -30
-59 -33 -70 -4 -10 -10 -26 -13 -34 -6 -13 -5 -13 12 0 10 8 36 24 56 34 26
13 73 64 151 165 107 136 335 409 474 567 33 38 110 125 169 193 60 69 165
186 234 261 69 74 166 182 215 240 146 168 298 330 317 336 10 3 18 8 18 12 0
4 -210 6 -466 4 -444 -2 -466 -2 -459 15 4 10 31 81 60 158 96 258 360 849
412 926 36 53 87 148 82 154 -2 2 -13 -1 -24 -7z" data-index="33" style="opacity: 1;"></path>
<path d="M6977 6567 c-125 -109 -237 -236 -237 -268 0 -9 8 -23 18 -32 17 -16
20 -15 43 9 13 14 85 71 159 127 130 99 270 221 270 237 0 13 -66 40 -97 39
-21 0 -59 -27 -156 -112z" data-index="34"></path>
<path d="M1844 6382 c-18 -12 -36 -54 -27 -62 8 -8 70 -32 368 -145 94 -35
227 -88 297 -118 70 -30 151 -63 180 -72 29 -10 69 -26 88 -35 19 -10 100 -39
180 -65 80 -26 165 -55 190 -66 68 -29 94 -29 98 -1 6 44 -25 64 -218 144
-385 159 -734 296 -900 351 -219 73 -241 79 -256 69z" data-index="35"></path>
<path d="M1529 6300 c-50 -26 -69 -60 -69 -120 0 -112 83 -179 186 -150 63 18
96 58 101 122 10 128 -107 207 -218 148z" data-index="36"></path>
<path d="M8513 6259 c-17 -11 -41 -40 -53 -65 -23 -46 -29 -49 -183 -91 -10
-3 -20 3 -24 14 -3 10 -17 33 -31 52 l-26 35 -11 -27 -11 -28 -48 37 c-48 37
-49 57 -2 47 17 -4 18 -3 6 6 -8 6 -37 11 -64 11 -85 0 -148 -58 -164 -151 -7
-41 -10 -44 -62 -65 -30 -13 -152 -55 -270 -94 -422 -140 -481 -162 -512 -188
-22 -19 -23 -65 -2 -86 19 -19 40 -15 149 29 44 18 105 40 135 50 30 10 127
44 215 77 88 33 210 77 271 98 l112 39 44 -24 c93 -50 165 -42 243 27 40 36
59 44 132 60 l86 18 34 -31 c44 -38 73 -49 127 -49 48 0 96 27 130 73 16 22
21 43 21 92 0 57 -3 67 -30 95 -16 18 -42 38 -57 46 -40 21 -117 18 -155 -7z
m162 -29 c10 -11 14 -20 8 -20 -5 0 -18 9 -28 20 -10 11 -14 20 -8 20 5 0 18
-9 28 -20z" data-index="37"></path>
<path d="M1760 6096 c0 -52 12 -62 115 -91 33 -10 114 -37 180 -60 164 -59
348 -116 550 -170 405 -108 546 -134 558 -102 8 22 -3 29 -127 81 -104 45
-188 71 -431 136 -209 55 -391 109 -582 174 -105 36 -207 68 -227 72 l-36 6 0
-46z" data-index="38" style="opacity: 1;"></path>
<path d="M1424 5861 c-83 -51 -87 -148 -9 -221 21 -20 37 -25 80 -25 43 0 59
5 80 25 33 30 55 71 56 102 l0 23 9 -22 c5 -12 19 -29 32 -37 20 -13 358 -70
753 -126 260 -37 665 -76 691 -66 22 9 17 54 -8 70 -14 9 -96 23 -198 36 -96
11 -242 31 -325 45 -138 22 -333 52 -590 91 -55 8 -143 22 -196 31 -89 14 -99
14 -129 -1 -18 -9 -34 -15 -34 -14 -12 36 -46 83 -67 94 -39 20 -108 18 -145
-5z" data-index="39" style="opacity: 1;"></path>
<path d="M8732 5797 c-48 -51 -15 -147 50 -147 36 0 78 45 78 84 -1 72 -82
112 -128 63z" data-index="40"></path>
<path d="M7870 5715 c-80 -13 -217 -37 -305 -53 -88 -17 -196 -35 -240 -41
-44 -7 -110 -21 -147 -33 -57 -18 -68 -25 -68 -44 0 -40 18 -45 136 -33 141
13 258 29 534 73 124 19 248 34 277 33 42 -2 56 2 77 22 32 30 32 32 0 70 -32
38 -57 39 -264 6z" data-index="41"></path>
<path d="M8400 5528 c-81 -13 -153 -50 -220 -113 -62 -60 -85 -98 -104 -174
l-11 -46 -470 -5 -470 -5 -3 -68 -3 -69 463 3 c255 2 468 0 474 -4 6 -3 21
-33 33 -66 56 -153 238 -264 407 -248 136 13 276 102 328 210 55 112 55 281 0
375 -90 154 -257 237 -424 210z m179 -108 c47 -13 101 -67 101 -100 0 -34 -45
-79 -64 -65 -8 6 -44 30 -80 55 -56 37 -66 49 -64 70 2 14 13 30 28 37 30 15
36 16 79 3z" data-index="42" style="opacity: 1;"></path>
<path d="M1438 5488 c-21 -6 -49 -24 -63 -40 l-26 -31 23 -16 c20 -14 83 -17
498 -23 261 -3 529 -11 595 -17 160 -14 585 -26 618 -17 21 5 27 12 27 34 0
58 5 56 -330 78 -679 42 -1251 56 -1342 32z" data-index="43" style="opacity: 1;"></path>
<path d="M7720 5474 c-25 -2 -115 -11 -201 -19 -181 -17 -332 -19 -359 -5 -15
8 -22 5 -34 -12 -22 -31 -20 -65 3 -78 23 -12 240 -12 545 -1 210 8 221 10
238 31 40 50 12 76 -89 83 -32 3 -78 3 -103 1z" data-index="44"></path>
<path d="M3870 5222 c-50 -25 -76 -81 -61 -132 12 -40 48 -76 86 -86 34 -8 92
21 115 58 39 64 15 134 -56 164 -42 18 -42 18 -84 -4z" data-index="45" style="opacity: 1;"></path>
<path d="M6290 5233 c-54 -20 -89 -92 -70 -148 26 -79 108 -99 166 -41 29 29
34 41 34 81 0 38 -5 52 -29 76 -16 16 -36 29 -44 29 -9 0 -21 2 -29 4 -7 3
-20 2 -28 -1z" data-index="46"></path>
<path d="M1270 5187 c-30 -15 -45 -54 -36 -91 14 -58 -5 -57 934 -56 471 1
874 4 895 7 l37 6 0 67 0 67 -72 6 c-40 4 -446 6 -903 7 -654 0 -835 -3 -855
-13z" data-index="47" style="opacity: 1;"></path>
<path d="M2885 4889 c-55 -5 -224 -20 -375 -34 -151 -13 -313 -27 -360 -30
-47 -3 -107 -11 -134 -16 -45 -9 -51 -7 -82 16 -53 40 -104 57 -170 57 -69 1
-109 -17 -148 -63 -55 -65 -73 -167 -42 -228 18 -34 79 -89 114 -102 39 -15
126 -13 158 4 69 37 133 125 134 185 0 16 6 22 23 22 12 0 63 5 112 10 50 5
160 14 245 20 85 6 286 24 447 40 160 17 294 30 297 30 3 0 6 23 6 50 l0 50
-62 -1 c-35 -1 -108 -6 -163 -10z" data-index="48" style="opacity: 1;"></path>
<path d="M7107 4879 c-13 -49 -8 -67 21 -73 38 -8 249 -33 417 -50 333 -35
407 -30 413 27 2 16 -4 39 -13 53 -15 24 -18 24 -158 24 -78 0 -221 7 -317 15
-374 31 -356 31 -363 4z" data-index="49" style="opacity: 1;"></path>
<path d="M3005 4719 c-64 -8 -399 -74 -714 -139 -107 -22 -198 -40 -203 -40
-18 0 -58 -50 -58 -73 0 -56 41 -61 185 -22 119 32 529 114 608 121 80 8 260
50 298 70 36 18 39 56 7 78 -24 17 -32 18 -123 5z" data-index="50" style="opacity: 1;"></path>
<path d="M7092 4722 c-7 -5 -15 -25 -19 -44 -4 -29 -1 -38 13 -46 30 -16 593
-130 729 -148 42 -6 57 -14 91 -51 38 -41 43 -43 96 -43 42 0 64 6 92 25 54
37 72 38 197 16 220 -38 279 -36 279 9 0 11 -2 20 -5 20 -18 0 -341 93 -364
105 -16 8 -38 30 -49 49 -26 45 -57 64 -113 72 -65 9 -120 -26 -165 -104 -1
-2 -21 2 -45 7 -24 6 -129 29 -234 51 -104 23 -240 52 -301 66 -115 25 -179
30 -202 16z" data-index="51" style="opacity: 1;"></path>
<path d="M8662 4573 c-19 -9 -41 -34 -58 -68 l-28 -53 18 -40 c10 -22 31 -54
48 -72 25 -28 34 -32 65 -27 93 16 149 109 109 185 -35 67 -102 100 -154 75z" data-index="52"></path>
<path d="M3085 4539 c-33 -10 -96 -28 -140 -40 -44 -11 -174 -51 -290 -88
-335 -109 -494 -158 -583 -181 -153 -39 -247 -71 -263 -92 -16 -20 -16 -20
-23 14 -12 63 -80 110 -161 112 -65 1 -114 -27 -139 -79 -42 -84 -16 -179 60
-222 95 -54 216 1 239 109 6 26 8 27 23 12 12 -13 28 -15 66 -11 97 10 428
106 886 257 96 32 200 66 230 75 30 9 90 33 133 52 61 29 77 40 77 57 0 26
-18 46 -39 45 -9 0 -43 -9 -76 -20z" data-index="53" style="opacity: 1;"></path>
<path d="M7032 4535 c-7 -14 -12 -30 -12 -34 0 -16 144 -79 320 -140 96 -34
245 -90 330 -126 305 -125 641 -225 773 -229 66 -2 69 -3 88 -37 29 -47 47
-59 92 -59 109 0 171 121 107 210 -57 81 -159 78 -210 -5 -24 -39 -40 -42 -93
-20 -20 8 -136 44 -259 79 -243 70 -288 86 -483 171 -168 73 -580 215 -623
215 -10 0 -24 -11 -30 -25z" data-index="54" style="opacity: 1;"></path>
<path d="M3170 4366 c-70 -30 -596 -287 -945 -462 -212 -106 -278 -144 -307
-176 -21 -22 -38 -36 -38 -30 0 39 -146 60 -195 28 -91 -60 -86 -215 9 -260
49 -23 113 -21 153 7 42 28 77 98 70 136 -6 26 -3 29 29 34 19 3 124 53 233
111 169 91 378 194 989 492 61 31 112 60 112 65 0 23 -30 79 -42 79 -7 0 -38
-11 -68 -24z" data-index="55"></path>
<path d="M6961 4338 c-6 -17 -8 -35 -4 -39 5 -4 197 -103 428 -220 419 -212
556 -285 777 -413 69 -40 132 -70 156 -73 37 -5 41 -9 47 -41 14 -74 62 -109
136 -99 91 12 143 111 105 200 -22 53 -51 72 -111 72 -44 0 -59 -5 -92 -31
l-38 -31 -35 22 c-19 12 -129 75 -245 140 -115 65 -246 138 -290 163 -158 90
-573 300 -672 340 -126 52 -147 53 -162 10z" data-index="56" style="opacity: 1;"></path>
<path d="M3195 4142 c-132 -77 -409 -250 -730 -457 -344 -221 -454 -295 -475
-322 -11 -14 -29 -23 -44 -23 -62 0 -126 -69 -126 -135 0 -93 123 -160 192
-105 43 34 53 72 34 131 -10 28 -16 52 -14 54 8 6 228 144 263 165 22 13 103
65 180 115 120 78 344 223 465 301 151 96 362 213 386 214 5 1 20 9 32 20 24
20 24 20 5 57 -27 56 -50 53 -168 -15z" data-index="57"></path>
<path d="M6865 4170 c-30 -57 -22 -75 52 -116 37 -21 96 -48 131 -61 81 -30
111 -45 197 -100 478 -308 702 -455 810 -532 l130 -93 1 -58 c0 -35 6 -67 16
-82 57 -87 208 -41 208 62 0 84 -49 140 -122 140 -25 0 -43 10 -78 45 -51 50
-872 597 -1034 689 -269 151 -285 157 -311 106z" data-index="58" style="opacity: 1;"></path>
<path d="M3209 3953 c-81 -52 -347 -252 -533 -402 -65 -53 -162 -130 -215
-171 -172 -134 -255 -206 -325 -285 -56 -62 -67 -80 -59 -94 19 -30 48 -24 99
22 27 24 90 74 139 112 97 75 353 276 449 353 197 157 483 426 510 480 9 17
15 32 13 32 -2 0 -37 -21 -78 -47z" data-index="59"></path>
<path d="M3414 3959 c-22 -17 -151 -140 -289 -273 -137 -133 -293 -279 -345
-326 -52 -46 -147 -134 -210 -195 -337 -323 -327 -315 -384 -315 -74 0 -96
-19 -96 -80 0 -65 29 -90 106 -90 l54 0 222 213 c123 117 255 242 293 277 39
35 226 213 417 397 l346 334 -25 44 c-13 25 -30 45 -37 45 -8 0 -31 -14 -52
-31z" data-index="60" style="opacity: 1;"></path>
<path d="M6747 3977 c-28 -24 -46 -60 -37 -76 9 -18 669 -657 765 -741 33 -29
158 -146 278 -259 120 -113 232 -212 247 -218 67 -29 140 19 140 91 0 44 -32
66 -96 66 l-57 0 -97 103 c-54 56 -148 147 -211 202 -62 55 -266 249 -453 432
-400 389 -445 427 -479 400z" data-index="61"></path>
<path d="M6976 3948 c11 -38 62 -96 127 -145 34 -26 107 -90 162 -143 116
-113 474 -402 608 -492 51 -34 119 -85 152 -113 72 -63 94 -75 134 -75 39 0
39 13 2 71 -36 56 -74 90 -188 172 -51 37 -147 110 -214 164 -67 54 -162 131
-213 171 -162 130 -299 241 -381 308 -114 94 -206 134 -189 82z" data-index="62" style="opacity: 1;"></path>
<path d="M6536 3751 l-47 -48 463 -458 c255 -253 591 -588 748 -747 253 -255
289 -288 317 -288 23 0 38 9 57 31 14 17 26 37 26 46 0 8 -134 149 -298 312
-388 386 -1173 1161 -1198 1183 -19 17 -22 16 -68 -31z" data-index="63" style="opacity: 1;"></path>
<path d="M3048 3216 c-665 -658 -897 -899 -898 -934 0 -35 16 -58 50 -72 27
-11 33 -10 62 13 18 13 89 86 158 160 69 75 267 275 440 444 173 169 441 433
595 585 l280 278 -52 51 -52 52 -583 -577z" data-index="64" style="opacity: 1;"></path>
<path d="M6313 3534 c-18 -14 -33 -31 -33 -39 0 -21 124 -176 276 -345 284
-316 306 -342 300 -364 -20 -69 -18 -105 7 -159 14 -30 37 -63 51 -72 36 -24
107 -30 161 -15 l45 13 82 -81 81 -81 -2 -66 c-2 -63 -1 -67 32 -100 60 -60
149 -53 201 17 38 53 17 157 -39 194 -14 9 -48 17 -77 18 -53 1 -54 2 -130 82
l-77 80 11 66 c11 61 10 68 -13 114 -19 40 -34 54 -79 77 -48 25 -63 28 -117
23 l-61 -5 -45 52 c-24 29 -80 97 -124 152 -45 55 -112 134 -149 176 -38 42
-111 124 -162 182 -51 59 -96 107 -100 107 -4 0 -22 -12 -39 -26z m815 -696
c14 -14 16 -54 3 -62 -14 -9 -61 33 -61 55 0 22 38 27 58 7z" data-index="65" style="opacity: 1;"></path>
<path d="M3792 3483 c-34 -38 -158 -176 -275 -308 l-213 -240 -56 3 c-69 4
-107 -14 -148 -70 -89 -123 32 -286 180 -242 86 26 142 114 120 193 -10 40
-10 43 22 80 18 21 132 149 253 286 121 136 233 264 249 283 l30 35 -28 23
c-43 38 -64 31 -134 -43z" data-index="66"></path>
<path d="M6085 3380 c-28 -31 -14 -77 71 -233 171 -313 455 -799 557 -953 66
-100 67 -102 66 -166 -2 -119 62 -188 175 -188 85 0 160 85 160 180 0 59 -25
104 -74 136 -37 24 -47 26 -108 21 l-67 -5 -21 36 c-11 20 -113 190 -226 377
-216 357 -323 541 -403 690 -71 132 -91 148 -130 105z" data-index="67" style="opacity: 1;"></path>
<path d="M4040 3323 c-24 -38 -61 -93 -81 -123 -145 -221 -289 -461 -289 -484
0 -2 14 -9 31 -15 67 -23 70 -20 154 117 43 70 108 177 146 237 65 106 128
224 148 278 9 22 7 29 -12 42 -36 25 -50 18 -97 -52z" data-index="68" style="opacity: 1;"></path>
<path d="M5854 3275 c-4 -9 -4 -25 -1 -38 5 -20 139 -332 216 -502 25 -53 31
-78 26 -103 -8 -44 10 -96 40 -116 60 -40 145 -2 145 64 0 43 -23 93 -52 112
-27 18 -25 13 -148 323 -51 127 -98 240 -106 253 -12 18 -24 22 -65 22 -35 0
-51 -4 -55 -15z" data-index="69" style="opacity: 1;"></path>
<path d="M4271 3263 c-29 -25 -148 -277 -202 -426 -7 -21 -28 -49 -46 -63 -40
-30 -52 -78 -29 -122 17 -33 33 -42 80 -42 51 0 77 35 86 117 6 54 24 104 89
246 101 221 123 276 117 294 -8 19 -70 16 -95 -4z" data-index="70" style="opacity: 1;"></path>
<path d="M5678 3214 c-18 -9 -28 -23 -28 -38 0 -32 217 -755 255 -848 8 -21
24 -22 76 -6 28 8 38 16 35 27 -3 9 -12 43 -20 76 -9 33 -40 132 -71 220 -30
88 -76 234 -101 325 -51 179 -81 254 -104 257 -8 1 -27 -4 -42 -13z" data-index="71" style="opacity: 1;"></path>
<path d="M4476 3177 c-17 -42 -55 -160 -146 -457 -40 -129 -101 -324 -136
-434 -35 -109 -72 -236 -81 -282 -10 -46 -22 -84 -27 -84 -5 0 -30 -10 -54
-21 -86 -42 -128 -159 -87 -239 50 -96 194 -120 270 -45 73 74 67 162 -17 251
-46 49 -48 53 -30 63 41 22 66 96 335 971 92 297 91 295 46 304 -51 10 -58 8
-73 -27z" data-index="72"></path>
<path d="M4736 3088 c-21 -94 -86 -517 -86 -556 0 -28 3 -30 41 -34 49 -4 60
9 78 87 11 47 50 297 73 467 13 92 5 108 -53 108 l-38 0 -15 -72z" data-index="73" style="opacity: 1;"></path>
<path d="M5413 3149 c-42 -12 -42 -27 -3 -210 17 -76 42 -203 55 -281 14 -79
31 -180 39 -224 8 -45 18 -123 22 -175 6 -79 11 -97 31 -117 32 -32 74 -27 87
11 10 28 -45 390 -127 832 -35 187 -34 185 -104 164z" data-index="74" style="opacity: 1;"></path>
<path d="M5073 3133 l-23 -4 0 -409 c0 -225 3 -410 8 -413 4 -2 32 -1 63 1
l56 4 5 401 c3 221 3 408 1 415 -5 12 -61 14 -110 5z" data-index="75"></path>
<path d="M3425 2527 c-113 -38 -204 -112 -250 -203 -24 -48 -29 -69 -29 -134
0 -68 5 -87 32 -143 74 -150 231 -223 387 -182 78 21 124 53 173 123 68 97 85
140 86 212 0 52 -5 75 -26 115 -36 69 -129 169 -181 194 -55 27 -141 35 -192
18z" data-index="76"></path>
<path d="M2768 2445 c-56 -32 -79 -113 -50 -179 23 -50 53 -74 104 -83 94 -15
184 105 143 190 -32 67 -137 106 -197 72z" data-index="77"></path>
<path d="M4612 2435 c-61 -51 -73 -114 -36 -187 43 -84 175 -79 244 9 32 41
26 77 -22 129 -69 75 -135 92 -186 49z" data-index="78"></path>
<path d="M4978 2146 c-141 -51 -234 -167 -259 -326 -18 -119 29 -250 120 -332
94 -84 226 -124 335 -99 131 29 219 97 287 223 33 60 34 67 34 168 0 96 -2
110 -30 163 -31 63 -113 146 -174 176 -78 40 -238 54 -313 27z m322 -105 c37
-27 48 -65 25 -91 -25 -27 -34 -26 -104 15 -64 38 -75 60 -45 90 21 20 86 13
124 -14z" data-index="79"></path>
<path d="M6044 2141 c-125 -22 -217 -134 -218 -266 0 -115 62 -218 162 -267
65 -31 167 -31 239 1 185 82 232 346 83 473 -59 51 -171 76 -266 59z" data-index="80"></path>
<path d="M4462 1595 c-44 -19 -68 -73 -52 -121 29 -87 133 -99 175 -19 46 84
-36 177 -123 140z" data-index="81"></path>
<path d="M5646 1584 c-63 -64 -20 -184 67 -184 49 0 73 13 92 50 41 79 -4 160
-88 160 -35 0 -50 -6 -71 -26z" data-index="82"></path>
</g>
</svg>